<svg width="20" height="20" viewBox="0 0 20 20" fill="none" xmlns="http://www.w3.org/2000/svg">
<path d="M15.7068 10.2928C15.3158 9.90176 14.6838 9.90176 14.2928 10.2928L12.6988 11.8868C11.9598 11.6668 10.5808 11.1668 9.70685 10.2928C8.83285 9.41876 8.33285 8.03976 8.11285 7.30076L9.70685 5.70676C10.0978 5.31576 10.0978 4.68376 9.70685 4.29276L5.70685 0.292762C5.31585 -0.0982383 4.68385 -0.0982383 4.29285 0.292762L1.58085 3.00476C1.20085 3.38476 0.986845 3.90676 0.994845 4.43976C1.01785 5.86376 1.39485 10.8098 5.29285 14.7078C9.19085 18.6058 14.1368 18.9818 15.5618 19.0058C15.5668 19.0058 15.5848 19.0058 15.5898 19.0058C16.1178 19.0058 16.6168 18.7978 16.9948 18.4198L19.7068 15.7078C20.0978 15.3168 20.0978 14.6848 19.7068 14.2938L15.7068 10.2928ZM15.5798 17.0048C14.3318 16.9838 10.0618 16.6488 6.70685 13.2928C3.34085 9.92676 3.01485 5.64176 2.99485 4.41876L4.99985 2.41376L7.58585 4.99976L6.29285 6.29276C6.05385 6.53076 5.95185 6.87476 6.02085 7.20476C6.04485 7.31976 6.63185 10.0468 8.29185 11.7068C9.95185 13.3668 12.6788 13.9538 12.7938 13.9778C13.1268 14.0488 13.4678 13.9458 13.7058 13.7068L14.9998 12.4138L17.5858 14.9998L15.5798 17.0048Z" fill="#2EC7AB"/>
</svg>
