<svg width="161" height="31" viewBox="0 0 161 31" fill="none" xmlns="http://www.w3.org/2000/svg">
<path d="M5.77346 13.4819C5.73334 13.1744 5.93854 12.9028 6.21907 12.7626L15.5324 8.10881C16.3949 7.6778 17.4128 7.67149 18.2808 8.09178L27.7431 12.6736C27.9999 12.7979 28.2133 13.0124 28.2564 13.2912C28.3111 13.645 28.0763 13.9604 27.7587 14.1336L18.4164 19.2278C17.4766 19.7403 16.3337 19.7327 15.4009 19.2078L6.16991 14.0134C5.96561 13.8984 5.80347 13.7119 5.77346 13.4819Z" fill="#3E73FA"/>
<path d="M11.672 0.0282174C11.7929 -0.0333015 11.9414 0.00889716 12.0106 0.124388L13.7876 3.09299C14.691 4.60207 14.1138 6.54969 12.5284 7.34189L5.90742 10.6503C4.43322 11.387 2.63207 10.8443 1.82742 9.42106L0.0325064 6.24625C-0.0380219 6.1215 0.010162 5.96396 0.138882 5.89845L11.672 0.0282174Z" fill="#3E73FA"/>
<path d="M30.8777 11.8396C30.9723 11.8125 31.048 11.7443 31.0929 11.6578L33.9718 6.1144C34.038 5.98693 33.9837 5.83074 33.8521 5.77009L21.3904 0.0261466C21.2633 -0.0324546 21.112 0.0205635 21.0509 0.145126L18.4892 5.36736C18.4268 5.49466 18.4083 5.64062 18.4578 5.77334C18.5048 5.89915 18.6064 5.99567 18.7285 6.05476L30.6208 11.8132C30.7008 11.8519 30.7921 11.8641 30.8777 11.8396Z" fill="#3E73FA"/>
<path d="M5.29539 15.8506C5.01294 15.6916 4.67346 15.6231 4.37924 15.7597C4.03181 15.921 3.87806 16.3031 3.87806 16.6817V23.8179C3.87806 23.9099 3.9288 23.9947 4.01052 24.0392L5.43607 24.8157C6.3752 25.3273 7.51677 25.3197 8.4489 24.7959L13.3199 22.0583C13.6681 21.8626 13.9411 21.5272 13.9047 21.1337C13.8742 20.8033 13.6323 20.5419 13.3401 20.3775L5.29539 15.8506Z" fill="#3E73FA"/>
<path d="M29.967 15.5028C29.7748 15.4272 29.56 15.4631 29.379 15.5618L17.3975 22.0952L10.354 26.0538C10.1173 26.1868 9.92334 26.3972 9.8832 26.6628C9.82913 27.0207 10.0677 27.3386 10.389 27.5136L16.7316 30.9685C16.813 31.0128 16.9125 31.0102 16.9914 30.9617L30.2402 22.8126C30.3153 22.7664 30.3609 22.6853 30.3609 22.598V16.1491C30.3609 15.8736 30.2266 15.605 29.967 15.5028Z" fill="#3E73FA"/>
<path d="M60.72 9.768V21H57.984V16.376H53.728V21H50.992V9.768H53.728V14.168H57.984V9.768H60.72ZM62.1511 16.52C62.1511 15.6027 62.3218 14.7973 62.6631 14.104C63.0151 13.4107 63.4898 12.8773 64.0871 12.504C64.6845 12.1307 65.3511 11.944 66.0871 11.944C66.7165 11.944 67.2658 12.072 67.7351 12.328C68.2151 12.584 68.5831 12.92 68.8391 13.336V12.072H71.5751V21H68.8391V19.736C68.5725 20.152 68.1991 20.488 67.7191 20.744C67.2498 21 66.7005 21.128 66.0711 21.128C65.3458 21.128 64.6845 20.9413 64.0871 20.568C63.4898 20.184 63.0151 19.6453 62.6631 18.952C62.3218 18.248 62.1511 17.4373 62.1511 16.52ZM68.8391 16.536C68.8391 15.8533 68.6471 15.3147 68.2631 14.92C67.8898 14.5253 67.4311 14.328 66.8871 14.328C66.3431 14.328 65.8791 14.5253 65.4951 14.92C65.1218 15.304 64.9351 15.8373 64.9351 16.52C64.9351 17.2027 65.1218 17.7467 65.4951 18.152C65.8791 18.5467 66.3431 18.744 66.8871 18.744C67.4311 18.744 67.8898 18.5467 68.2631 18.152C68.6471 17.7573 68.8391 17.2187 68.8391 16.536ZM73.0105 16.52C73.0105 15.6027 73.1812 14.7973 73.5225 14.104C73.8745 13.4107 74.3492 12.8773 74.9465 12.504C75.5438 12.1307 76.2105 11.944 76.9465 11.944C77.5332 11.944 78.0665 12.0667 78.5465 12.312C79.0372 12.5573 79.4212 12.888 79.6985 13.304V9.16H82.4345V21H79.6985V19.72C79.4425 20.1467 79.0745 20.488 78.5945 20.744C78.1252 21 77.5758 21.128 76.9465 21.128C76.2105 21.128 75.5438 20.9413 74.9465 20.568C74.3492 20.184 73.8745 19.6453 73.5225 18.952C73.1812 18.248 73.0105 17.4373 73.0105 16.52ZM79.6985 16.536C79.6985 15.8533 79.5065 15.3147 79.1225 14.92C78.7492 14.5253 78.2905 14.328 77.7465 14.328C77.2025 14.328 76.7385 14.5253 76.3545 14.92C75.9812 15.304 75.7945 15.8373 75.7945 16.52C75.7945 17.2027 75.9812 17.7467 76.3545 18.152C76.7385 18.5467 77.2025 18.744 77.7465 18.744C78.2905 18.744 78.7492 18.5467 79.1225 18.152C79.5065 17.7573 79.6985 17.2187 79.6985 16.536ZM85.7739 11.144C85.2939 11.144 84.8992 11.0053 84.5899 10.728C84.2912 10.44 84.1419 10.088 84.1419 9.672C84.1419 9.24533 84.2912 8.89333 84.5899 8.616C84.8992 8.328 85.2939 8.184 85.7739 8.184C86.2432 8.184 86.6272 8.328 86.9259 8.616C87.2352 8.89333 87.3899 9.24533 87.3899 9.672C87.3899 10.088 87.2352 10.44 86.9259 10.728C86.6272 11.0053 86.2432 11.144 85.7739 11.144ZM87.1499 22.152C87.1499 23.2507 86.8725 24.04 86.3179 24.52C85.7632 25.0107 84.9899 25.256 83.9979 25.256H82.9259V22.936H83.5819C83.8805 22.936 84.0939 22.8773 84.2219 22.76C84.3499 22.6427 84.4139 22.4507 84.4139 22.184V12.072H87.1499V22.152ZM90.493 11.144C90.013 11.144 89.6183 11.0053 89.309 10.728C89.0103 10.44 88.861 10.088 88.861 9.672C88.861 9.24533 89.0103 8.89333 89.309 8.616C89.6183 8.328 90.013 8.184 90.493 8.184C90.9623 8.184 91.3463 8.328 91.645 8.616C91.9543 8.89333 92.109 9.24533 92.109 9.672C92.109 10.088 91.9543 10.44 91.645 10.728C91.3463 11.0053 90.9623 11.144 90.493 11.144ZM91.853 12.072V21H89.117V12.072H91.853ZM105.228 11.976C106.337 11.976 107.217 12.312 107.868 12.984C108.529 13.656 108.86 14.5893 108.86 15.784V21H106.14V16.152C106.14 15.576 105.985 15.1333 105.676 14.824C105.377 14.504 104.961 14.344 104.428 14.344C103.894 14.344 103.473 14.504 103.164 14.824C102.865 15.1333 102.716 15.576 102.716 16.152V21H99.9958V16.152C99.9958 15.576 99.8411 15.1333 99.5318 14.824C99.2331 14.504 98.8171 14.344 98.2838 14.344C97.7504 14.344 97.3291 14.504 97.0198 14.824C96.7211 15.1333 96.5718 15.576 96.5718 16.152V21H93.8358V12.072H96.5718V13.192C96.8491 12.8187 97.2118 12.5253 97.6598 12.312C98.1078 12.088 98.6144 11.976 99.1798 11.976C99.8518 11.976 100.449 12.12 100.972 12.408C101.505 12.696 101.921 13.1067 102.22 13.64C102.529 13.1493 102.95 12.7493 103.484 12.44C104.017 12.1307 104.598 11.976 105.228 11.976ZM119.189 16.392C119.189 16.648 119.173 16.9147 119.141 17.192H112.949C112.992 17.7467 113.168 18.1733 113.477 18.472C113.797 18.76 114.187 18.904 114.645 18.904C115.328 18.904 115.803 18.616 116.069 18.04H118.981C118.832 18.6267 118.56 19.1547 118.165 19.624C117.781 20.0933 117.296 20.4613 116.709 20.728C116.123 20.9947 115.467 21.128 114.741 21.128C113.867 21.128 113.088 20.9413 112.405 20.568C111.723 20.1947 111.189 19.6613 110.805 18.968C110.421 18.2747 110.229 17.464 110.229 16.536C110.229 15.608 110.416 14.7973 110.789 14.104C111.173 13.4107 111.707 12.8773 112.389 12.504C113.072 12.1307 113.856 11.944 114.741 11.944C115.605 11.944 116.373 12.1253 117.045 12.488C117.717 12.8507 118.24 13.368 118.613 14.04C118.997 14.712 119.189 15.496 119.189 16.392ZM116.389 15.672C116.389 15.2027 116.229 14.8293 115.909 14.552C115.589 14.2747 115.189 14.136 114.709 14.136C114.251 14.136 113.861 14.2693 113.541 14.536C113.232 14.8027 113.04 15.1813 112.965 15.672H116.389ZM123.479 16.52C123.479 15.6027 123.65 14.7973 123.991 14.104C124.343 13.4107 124.818 12.8773 125.415 12.504C126.013 12.1307 126.679 11.944 127.415 11.944C128.002 11.944 128.535 12.0667 129.015 12.312C129.506 12.5573 129.89 12.888 130.167 13.304V9.16H132.903V21H130.167V19.72C129.911 20.1467 129.543 20.488 129.063 20.744C128.594 21 128.045 21.128 127.415 21.128C126.679 21.128 126.013 20.9413 125.415 20.568C124.818 20.184 124.343 19.6453 123.991 18.952C123.65 18.248 123.479 17.4373 123.479 16.52ZM130.167 16.536C130.167 15.8533 129.975 15.3147 129.591 14.92C129.218 14.5253 128.759 14.328 128.215 14.328C127.671 14.328 127.207 14.5253 126.823 14.92C126.45 15.304 126.263 15.8373 126.263 16.52C126.263 17.2027 126.45 17.7467 126.823 18.152C127.207 18.5467 127.671 18.744 128.215 18.744C128.759 18.744 129.218 18.5467 129.591 18.152C129.975 17.7573 130.167 17.2187 130.167 16.536ZM143.299 16.392C143.299 16.648 143.283 16.9147 143.251 17.192H137.059C137.101 17.7467 137.277 18.1733 137.587 18.472C137.907 18.76 138.296 18.904 138.755 18.904C139.437 18.904 139.912 18.616 140.179 18.04H143.091C142.941 18.6267 142.669 19.1547 142.275 19.624C141.891 20.0933 141.405 20.4613 140.819 20.728C140.232 20.9947 139.576 21.128 138.851 21.128C137.976 21.128 137.197 20.9413 136.515 20.568C135.832 20.1947 135.299 19.6613 134.915 18.968C134.531 18.2747 134.339 17.464 134.339 16.536C134.339 15.608 134.525 14.7973 134.899 14.104C135.283 13.4107 135.816 12.8773 136.499 12.504C137.181 12.1307 137.965 11.944 138.851 11.944C139.715 11.944 140.483 12.1253 141.155 12.488C141.827 12.8507 142.349 13.368 142.723 14.04C143.107 14.712 143.299 15.496 143.299 16.392ZM140.499 15.672C140.499 15.2027 140.339 14.8293 140.019 14.552C139.699 14.2747 139.299 14.136 138.819 14.136C138.36 14.136 137.971 14.2693 137.651 14.536C137.341 14.8027 137.149 15.1813 137.075 15.672H140.499ZM156.134 11.976C157.243 11.976 158.123 12.312 158.774 12.984C159.435 13.656 159.766 14.5893 159.766 15.784V21H157.046V16.152C157.046 15.576 156.891 15.1333 156.582 14.824C156.283 14.504 155.867 14.344 155.334 14.344C154.801 14.344 154.379 14.504 154.07 14.824C153.771 15.1333 153.622 15.576 153.622 16.152V21H150.902V16.152C150.902 15.576 150.747 15.1333 150.438 14.824C150.139 14.504 149.723 14.344 149.19 14.344C148.657 14.344 148.235 14.504 147.926 14.824C147.627 15.1333 147.478 15.576 147.478 16.152V21H144.742V12.072H147.478V13.192C147.755 12.8187 148.118 12.5253 148.566 12.312C149.014 12.088 149.521 11.976 150.086 11.976C150.758 11.976 151.355 12.12 151.878 12.408C152.411 12.696 152.827 13.1067 153.126 13.64C153.435 13.1493 153.857 12.7493 154.39 12.44C154.923 12.1307 155.505 11.976 156.134 11.976Z" fill="#3E73FA"/>
</svg>
